<svg width="200" height="68" viewBox="0 0 200 68" fill="none" xmlns="http://www.w3.org/2000/svg">
<path d="M34.9188 36H27.4188V35.4H28.9188V19.8H27.4188V19.2H34.9188C36.3988 19.2 37.7288 19.45 38.9088 19.95C40.1088 20.43 41.0788 21.07 41.8188 21.87C43.3188 23.53 44.0688 25.41 44.0688 27.51C44.0688 30.35 43.3188 32.48 41.8188 33.9C40.3188 35.3 38.0188 36 34.9188 36ZM33.4188 35.4C35.5788 35.4 37.1388 34.82 38.0988 33.66C39.0588 32.48 39.5388 30.57 39.5388 27.93C39.5388 25.27 39.0188 23.25 37.9788 21.87C36.9388 20.49 35.4188 19.8 33.4188 19.8V35.4ZM58.7758 19.8V27.54C60.7758 27.54 62.1158 27.25 62.7958 26.67C63.4758 26.09 63.8158 25.12 63.8158 23.76C63.8158 22.4 63.4658 21.4 62.7658 20.76C62.0658 20.12 60.7358 19.8 58.7758 19.8ZM70.5658 36.3H69.2458C66.7458 36.3 65.0058 35.76 64.0258 34.68C63.2458 33.84 62.7158 32.73 62.4358 31.35C62.3158 30.77 62.1858 30.24 62.0458 29.76C61.7258 28.68 61.0758 28.14 60.0958 28.14H58.7758V35.4H60.2758V36H52.7758V35.4H54.2758V19.8H52.7758V19.2H60.6658C65.7658 19.2 68.3158 20.69 68.3158 23.67C68.3158 24.85 67.8858 25.81 67.0258 26.55C66.1658 27.29 65.0658 27.66 63.7258 27.66V27.87C65.7258 27.87 67.1158 29.19 67.8958 31.83C68.2958 33.23 68.6958 34.23 69.0958 34.83C69.5158 35.41 70.0058 35.7 70.5658 35.7V36.3ZM97.0502 35.4V36H89.1602V35.4H90.9302L88.9202 31.23H82.8602L81.1202 35.4H83.4902V36H78.3602V35.4H80.3702L87.2402 18.9H87.9902L95.6102 35.4H97.0502ZM83.1302 30.6H88.6202L85.6802 24.48L83.1302 30.6ZM120.197 36C120.197 35.54 120.067 35.16 119.807 34.86C119.547 34.54 119.207 34.38 118.787 34.38C118.387 34.38 117.967 34.55 117.527 34.89C117.107 35.23 116.607 35.58 116.027 35.94C115.467 36.28 114.787 36.45 113.987 36.45C111.267 36.45 109.157 35.75 107.657 34.35C106.177 32.95 105.437 30.8 105.437 27.9C105.437 21.84 108.267 18.81 113.927 18.81C114.947 18.81 115.987 19.06 117.047 19.56C118.127 20.06 118.787 20.31 119.027 20.31C119.267 20.31 119.467 20.19 119.627 19.95C119.787 19.69 119.867 19.44 119.867 19.2H120.437V25.29H119.837C119.837 23.77 119.237 22.41 118.037 21.21C116.857 20.01 115.487 19.41 113.927 19.41C112.727 19.41 111.817 20.06 111.197 21.36C110.577 22.64 110.267 24.77 110.267 27.75C110.267 30.71 110.577 32.8 111.197 34.02C111.837 35.24 112.767 35.85 113.987 35.85C115.907 35.85 116.867 34.14 116.867 30.72V28.5H114.977V27.9H122.177V28.5H120.767V36H120.197ZM143.219 27.57C143.219 25.01 142.869 23.02 142.169 21.6C141.489 20.16 140.539 19.44 139.319 19.44C138.119 19.44 137.169 20.16 136.469 21.6C135.769 23.04 135.419 25.05 135.419 27.63C135.419 30.21 135.749 32.2 136.409 33.6C137.089 35 138.059 35.7 139.319 35.7C141.919 35.7 143.219 32.99 143.219 27.57ZM148.049 27.75C148.049 30.49 147.239 32.6 145.619 34.08C143.999 35.56 141.889 36.3 139.289 36.3C136.689 36.3 134.589 35.57 132.989 34.11C131.389 32.63 130.589 30.52 130.589 27.78C130.589 25.02 131.389 22.84 132.989 21.24C134.589 19.64 136.709 18.84 139.349 18.84C142.009 18.84 144.119 19.64 145.679 21.24C147.259 22.82 148.049 24.99 148.049 27.75ZM158.852 35.4H161.252V36H156.452V35.4H158.252V21.12C157.612 20.24 157.012 19.8 156.452 19.8V19.2H162.062L170.492 29.19V19.8H168.092V19.2H173.192V19.8H171.092V36.3H170.492L158.852 21.87V35.4Z" fill="white"/>
<path d="M46.9691 59V50.4688H49.4008C50.1781 50.4688 50.7621 50.6582 51.1527 51.0371C51.5473 51.416 51.7445 51.9844 51.7445 52.7422C51.7445 53.1406 51.6449 53.4922 51.4457 53.7969C51.2465 54.1016 50.977 54.3379 50.6371 54.5059C51.0277 54.623 51.3363 54.8633 51.5629 55.2266C51.7934 55.5898 51.9086 56.0273 51.9086 56.5391C51.9086 57.3047 51.6977 57.9062 51.2758 58.3438C50.8578 58.7812 50.2602 59 49.4828 59H46.9691ZM48.0414 55.0098V58.0801H49.5062C49.9125 58.0801 50.2348 57.9473 50.473 57.6816C50.7113 57.4121 50.8305 57.0352 50.8305 56.5508C50.8305 55.5234 50.3969 55.0098 49.5297 55.0098H48.0414ZM48.0414 54.1074H49.4184C49.7895 54.1074 50.0883 53.9824 50.3148 53.7324C50.5453 53.4824 50.6605 53.1504 50.6605 52.7363C50.6605 52.2676 50.557 51.9277 50.35 51.7168C50.143 51.502 49.8266 51.3945 49.4008 51.3945H48.0414V54.1074ZM76.6984 56.7734H73.8156L73.1535 59H72.052L74.8 50.4688H75.7199L78.4738 59H77.3723L76.6984 56.7734ZM74.0969 55.8477H76.423L75.257 51.9688L74.0969 55.8477ZM99.9121 58.0801H103.258V59H98.834V50.4688H99.9121V58.0801ZM124.819 58.0801H128.165V59H123.741V50.4688H124.819V58.0801ZM152.375 56.8438C152.375 56.418 152.259 56.0918 152.029 55.8652C151.798 55.6387 151.382 55.418 150.781 55.2031C150.179 54.9883 149.718 54.7637 149.398 54.5293C149.082 54.291 148.843 54.0215 148.683 53.7207C148.527 53.416 148.449 53.0684 148.449 52.6777C148.449 52.002 148.673 51.4453 149.123 51.0078C149.576 50.5703 150.168 50.3516 150.898 50.3516C151.398 50.3516 151.843 50.4648 152.234 50.6914C152.625 50.9141 152.925 51.2246 153.136 51.623C153.347 52.0215 153.453 52.459 153.453 52.9355H152.375C152.375 52.4082 152.248 52 151.994 51.7109C151.74 51.4219 151.375 51.2773 150.898 51.2773C150.464 51.2773 150.129 51.3984 149.89 51.6406C149.652 51.8828 149.533 52.2227 149.533 52.6602C149.533 53.0195 149.662 53.3203 149.92 53.5625C150.177 53.8047 150.576 54.0215 151.115 54.2129C151.955 54.4902 152.554 54.832 152.914 55.2383C153.277 55.6445 153.459 56.1758 153.459 56.832C153.459 57.5234 153.234 58.0781 152.785 58.4961C152.336 58.9102 151.724 59.1172 150.951 59.1172C150.455 59.1172 149.996 59.0098 149.574 58.7949C149.156 58.5762 148.826 58.2715 148.584 57.8809C148.345 57.4863 148.226 57.0352 148.226 56.5273H149.304C149.304 57.0547 149.451 57.4648 149.744 57.7578C150.041 58.0508 150.443 58.1973 150.951 58.1973C151.423 58.1973 151.779 58.0762 152.017 57.834C152.255 57.5918 152.375 57.2617 152.375 56.8438Z" fill="white"/>
</svg>
