<svg width="64" height="64" viewBox="0 0 64 64" fill="none" xmlns="http://www.w3.org/2000/svg">
<path fill-rule="evenodd" clip-rule="evenodd" d="M0.57959 4.25666C21.2432 -1.4581 43.2416 -1.41862 63.9052 4.3751C64.1949 9.78388 63.781 15.7256 63.2119 20.4337C44.9179 9.20155 22.2158 3.64472 0.57959 4.26653V4.25666Z" fill="#FCB428"/>
<path fill-rule="evenodd" clip-rule="evenodd" d="M32.0353 64C10.637 53.5772 0.289725 36.127 0 10.5143C4.52178 10.1984 28.7655 9.11271 46.2111 18.7163C35.1291 15.6862 21.926 14.2057 10.2645 15.2617C11.3614 31.0439 17.3525 44.102 32.025 52.9258C38.3368 49.116 43.0242 44.5264 46.4077 39.2854C39.9303 36.4132 32.9562 34.5083 25.8269 33.6891C23.9127 30.5011 22.4847 27.0762 21.6673 23.5032C35.3568 24.431 48.115 28.4382 59.6833 35.2387C54.758 47.8723 45.6213 57.3575 32.0146 64H32.0353Z" fill="white"/>
</svg>
